HIERARCHY
ROOT Hips
{
 OFFSET 0.000000 0.000000 0.000000
 CHANNELS 6 Xposition Yposition Zposition Yrotation Xrotation Zrotation
 JOINT Chest
 {
  OFFSET 0.000000 10.383400 0.001500
  CHANNELS 3 Yrotation Xrotation Zrotation
  JOINT Chest2
  {
   OFFSET 0.000000 10.418200 -0.003100
   CHANNELS 3 Yrotation Xrotation Zrotation
   JOINT Chest3
   {
    OFFSET 0.000000 10.375100 0.000000
    CHANNELS 3 Yrotation Xrotation Zrotation
    JOINT Chest4
    {
     OFFSET 0.000000 10.364600 0.000000
     CHANNELS 3 Yrotation Xrotation Zrotation
     JOINT Neck
     {
      OFFSET 0.000000 15.642200 0.000000
      CHANNELS 3 Yrotation Xrotation Zrotation
      JOINT Head
      {
       OFFSET 0.000000 9.697300 -0.006500
       CHANNELS 3 Yrotation Xrotation Zrotation
       End Site
       {
        OFFSET 0.000000 18.492200 -0.003400
       }
      }
     }
     JOINT RightCollar
     {
      OFFSET -3.166800 10.349300 0.000000
      CHANNELS 3 Yrotation Xrotation Zrotation
      JOINT RightShoulder
      {
       OFFSET -14.729700 0.000000 0.000000
       CHANNELS 3 Yrotation Xrotation Zrotation
       JOINT RightElbow
       {
        OFFSET 0.000000 -32.224300 0.000000
        CHANNELS 3 Yrotation Xrotation Zrotation
        JOINT RightWrist
        {
         OFFSET 0.000000 -26.084100 0.000000
         CHANNELS 3 Yrotation Xrotation Zrotation
         End Site
         {
          OFFSET 0.000000 -19.319400 0.000000
         }
        }
       }
      }
     }
     JOINT LeftCollar
     {
      OFFSET 3.166800 10.349300 0.000000
      CHANNELS 3 Yrotation Xrotation Zrotation
      JOINT LeftShoulder
      {
       OFFSET 14.729700 0.000000 0.000000
       CHANNELS 3 Yrotation Xrotation Zrotation
       JOINT LeftElbow
       {
        OFFSET 0.000000 -32.224300 0.000000
        CHANNELS 3 Yrotation Xrotation Zrotation
        JOINT LeftWrist
        {
         OFFSET 0.000000 -26.084100 0.000000
         CHANNELS 3 Yrotation Xrotation Zrotation
         End Site
         {
          OFFSET 0.000000 -19.319400 0.000000
         }
        }
       }
      }
     }
    }
   }
  }
 }
 JOINT RightHip
 {
  OFFSET -8.428900 -0.007500 -0.000800
  CHANNELS 3 Yrotation Xrotation Zrotation
  JOINT RightKnee
  {
   OFFSET 0.000000 -43.834600 0.000700
   CHANNELS 3 Yrotation Xrotation Zrotation
   JOINT RightAnkle
   {
    OFFSET 0.000000 -42.757000 0.001200
    CHANNELS 3 Yrotation Xrotation Zrotation
    JOINT RightToe
    {
     OFFSET 0.000000 -6.946900 15.649300
     CHANNELS 3 Yrotation Xrotation Zrotation
     End Site
     {
      OFFSET 0.000000 -1.580800 6.825800
     }
    }
   }
  }
 }
 JOINT LeftHip
 {
  OFFSET 8.428900 -0.007500 -0.000800
  CHANNELS 3 Yrotation Xrotation Zrotation
  JOINT LeftKnee
  {
   OFFSET 0.000000 -43.834600 0.000700
   CHANNELS 3 Yrotation Xrotation Zrotation
   JOINT LeftAnkle
   {
    OFFSET 0.000000 -42.757000 0.001200
    CHANNELS 3 Yrotation Xrotation Zrotation
    JOINT LeftToe
    {
     OFFSET 0.000000 -6.946900 15.649300
     CHANNELS 3 Yrotation Xrotation Zrotation
     End Site
     {
      OFFSET 0.000000 -1.580800 6.825800
     }
    }
   }
  }
 }
}
MOTION
Frames: 11
Frame Time: 0.008333
0.000000 93.354300 0.000000 0.000000 -5.767877 0.000000 0.000000 11.653817 0.000000 0.000000 -5.885947 0.000000 0.000000 -0.000000 0.000000 0.000000 -0.000000 0.000000 0.000000 12.528835 0.000000 0.000000 0.711642 0.000000 0.000000 -0.000000 0.000000 0.000000 0.000000 -90.000000 0.000000 -2.309062 0.000000 0.000000 2.309062 0.000000 0.000000 -0.000000 0.000000 0.000000 -0.000000 90.000000 0.000000 -2.309062 0.000000 0.000000 2.309062 0.000000 0.000000 8.520406 0.000000 0.000000 1.905762 0.000000 -0.000000 -4.658285 0.000000 0.000000 -0.000000 0.000000 0.000000 8.520406 0.000000 0.000000 1.905762 0.000000 -0.000000 -4.658285 0.000000 0.000000 -0.000000 0.000000
23.186009 126.881904 -49.345769 -16.079409 -27.161148 -1.460440 -1.638555 16.757655 1.909517 -0.200127 1.739975 0.214509 -0.316209 2.901838 0.365852 -1.469246 14.760033 1.698893 2.401723 11.444793 -1.239826 5.136869 -14.409938 -3.393364 -1.445787 -4.559281 -4.279297 10.568445 -11.703372 -12.765574 28.228783 -49.915728 3.430101 6.123999 3.818954 -24.362822 -0.072928 -6.527520 -3.915174 0.333980 -4.964227 5.704621 -47.042686 -55.455769 24.295069 -31.202120 8.293609 12.522704 -4.330569 -42.823038 0.454616 -23.074008 74.419359 -25.178706 2.386775 -3.703180 6.743959 -0.001093 -0.003279 -0.000485 -3.906401 -35.820954 -5.660880 0.174209 69.516516 3.065792 -12.168125 -5.642219 -4.392984 0.002156 -0.000404 0.000957
23.186527 126.882112 -49.345921 -16.076745 -27.165705 -1.455912 -1.639158 16.761961 1.906544 -0.200067 1.739338 0.216299 -0.309815 2.903392 0.367801 -1.471789 14.762200 1.697772 2.392795 11.452527 -1.235790 5.117019 -14.366469 -3.370957 -1.448498 -4.565643 -4.275397 10.611798 -11.716879 -12.749406 28.293416 -49.903173 3.360353 6.115032 3.835387 -24.364337 -0.059072 -6.528168 -3.909145 0.318845 -4.966082 5.715718 -46.961918 -55.462984 24.217027 -31.176268 8.269939 12.539208 -4.318188 -42.820630 0.446650 -23.061979 74.424912 -25.181051 2.374973 -3.708302 6.753533 -0.002592 -0.001739 -0.001150 -3.894679 -35.814341 -5.666447 0.157935 69.512338 3.042605 -12.177011 -5.636904 -4.388817 0.001402 -0.000833 0.000622
23.186781 126.882008 -49.346997 -16.072708 -27.166205 -1.453723 -1.638642 16.762711 1.906349 -0.184430 1.738366 0.225495 -0.318865 2.903129 0.364831 -1.472133 14.763461 1.699854 2.381662 11.475311 -1.232902 5.101486 -14.351615 -3.362633 -1.459537 -4.568009 -4.279225 10.616244 -11.717887 -12.748723 28.422485 -49.945480 3.283193 6.108343 3.859062 -24.351116 -0.066935 -6.529329 -3.913394 0.324693 -4.969010 5.752887 -46.813036 -55.461864 24.061011 -31.166671 8.227409 12.575993 -4.284346 -42.824973 0.443707 -23.104204 74.428654 -25.241868 2.352559 -3.712083 6.781387 -0.002641 -0.002015 -0.001172 -3.885472 -35.811530 -5.667584 0.154456 69.506571 3.028845 -12.195077 -5.633552 -4.379259 0.000286 -0.001577 0.000127
23.187090 126.882314 -49.347401 -16.059566 -27.171074 -1.453219 -1.630571 16.762210 1.921542 -0.202339 1.742385 0.211749 -0.311820 2.902426 0.373109 -1.470176 14.764191 1.705136 2.375740 11.508190 -1.221562 5.081204 -14.337918 -3.366112 -1.459362 -4.568709 -4.280379 10.617690 -11.724797 -12.740699 28.447064 -49.930551 3.251189 6.106839 3.862178 -24.349480 -0.076099 -6.528228 -3.922545 0.321273 -4.970770 5.755717 -46.748203 -55.450747 24.003499 -31.131211 8.207670 12.593039 -4.229082 -42.826636 0.432797 -23.256411 74.428183 -25.396392 2.335024 -3.721595 6.799402 0.007589 -0.003112 0.003369 -3.873702 -35.803981 -5.668868 0.153517 69.501578 3.004366 -12.204874 -5.628082 -4.365669 -0.003051 -0.002439 -0.001354
23.189055 126.882661 -49.347387 -16.045243 -27.175880 -1.442752 -1.637064 16.763909 1.921361 -0.203554 1.743412 0.206509 -0.315772 2.903077 0.373296 -1.474495 14.764865 1.703142 2.372262 11.515808 -1.221137 5.065945 -14.294052 -3.349812 -1.448641 -4.567478 -4.274462 10.614855 -11.730217 -12.730306 28.538904 -49.944670 3.178504 6.097103 3.882860 -24.350027 -0.058389 -6.528001 -3.912382 0.298656 -4.974442 5.758984 -46.655307 -55.449388 23.918974 -31.093289 8.187571 12.612146 -4.197490 -42.827223 0.418489 -23.287806 74.439145 -25.474272 2.316774 -3.735858 6.843728 -0.003775 -0.003798 -0.001676 -3.857128 -35.796061 -5.690787 0.137783 69.494226 2.980294 -12.207489 -5.621660 -4.359392 -0.002822 -0.003056 -0.001253
23.188452 126.883048 -49.348401 -16.037077 -27.179603 -1.443768 -1.641269 16.766536 1.926403 -0.199139 1.742407 0.212592 -0.322675 2.904815 0.363926 -1.473080 14.765685 1.708163 2.369005 11.522932 -1.221462 5.060848 -14.266121 -3.341813 -1.433719 -4.559746 -4.255939 10.601982 -11.737438 -12.735920 28.645412 -49.965167 3.094533 6.091845 3.905815 -24.348349 -0.052012 -6.527943 -3.914059 0.290071 -4.980720 5.786460 -46.542944 -55.456715 23.810782 -31.053075 8.168404 12.635492 -4.172676 -42.828458 0.415092 -23.369803 74.438728 -25.552798 2.300150 -3.739928 6.833977 0.008390 -0.004079 0.003724 -3.843310 -35.788107 -5.697734 0.124334 69.489827 2.961028 -12.199177 -5.619063 -4.353876 -0.002816 -0.002437 -0.001250
23.188892 126.883268 -49.349588 -16.029120 -27.180748 -1.438846 -1.647584 16.766705 1.925921 -0.196348 1.741808 0.220842 -0.323687 2.904916 0.365031 -1.477603 14.765576 1.713578 2.365095 11.536596 -1.224423 5.062927 -14.247104 -3.346664 -1.434325 -4.558286 -4.272734 10.600996 -11.745597 -12.714973 28.765787 -49.984772 3.004101 6.081645 3.922421 -24.350294 -0.024318 -6.521688 -3.916250 0.259895 -4.986042 5.774567 -46.449762 -55.449532 23.732255 -31.007013 8.152027 12.662576 -4.138955 -42.831786 0.406826 -23.425949 74.440004 -25.626119 2.283332 -3.747740 6.849516 0.011406 -0.005363 0.005063 -3.823369 -35.781701 -5.712422 0.108961 69.483558 2.936870 -12.181649 -5.615793 -4.344842 -0.002241 -0.001351 -0.000995
23.190890 126.883851 -49.349690 -16.015521 -27.185788 -1.426414 -1.646073 16.769712 1.936524 -0.207397 1.744324 0.208988 -0.315833 2.905576 0.376859 -1.490513 14.765952 1.706301 2.363656 11.545914 -1.225038 5.059046 -14.244527 -3.353697 -1.425789 -4.552121 -4.269590 10.610911 -11.757232 -12.684535 28.886497 -49.990146 2.876976 6.069962 3.946358 -24.356291 -0.005370 -6.518198 -3.917736 0.252064 -5.000640 5.781472 -46.345506 -55.447889 23.624442 -31.004457 8.126433 12.682378 -4.115940 -42.829790 0.384685 -23.454972 74.443649 -25.683694 2.277598 -3.758303 6.869721 0.006629 -0.005071 0.002942 -3.773533 -35.769536 -5.746982 0.047471 69.474808 2.881660 -12.180147 -5.607687 -4.324703 -0.000141 -0.000689 -0.000062
23.191239 126.884111 -49.351133 -16.013983 -27.186424 -1.419490 -1.637030 16.766606 1.942524 -0.196299 1.743640 0.222591 -0.337934 2.909203 0.357266 -1.478385 14.768747 1.722254 2.381486 11.562239 -1.214101 5.033752 -14.248350 -3.369143 -1.400359 -4.544236 -4.250220 10.598222 -11.760799 -12.701434 28.991410 -50.015149 2.779098 6.064821 3.967645 -24.350853 0.004552 -6.515887 -3.922844 0.234809 -5.008033 5.773836 -46.265258 -55.439022 23.557170 -30.996468 8.107124 12.700347 -4.092649 -42.830514 0.379344 -23.479967 74.440902 -25.736818 2.275676 -3.765730 6.872375 -0.001324 -0.005911 -0.000588 -3.755662 -35.765785 -5.755279 0.034857 69.468927 2.857767 -12.185075 -5.601843 -4.311888 -0.000624 -0.000894 -0.000277
23.192888 126.885083 -49.350649 -16.003671 -27.196259 -1.407333 -1.639761 16.772979 1.934954 -0.200188 1.745021 0.220489 -0.332831 2.909456 0.363283 -1.453889 14.772421 1.738140 2.365412 11.566357 -1.220982 5.019058 -14.236675 -3.361366 -1.426956 -4.545922 -4.257380 10.605497 -11.761456 -12.693208 29.098983 -50.046061 2.686203 6.075327 3.980226 -24.353761 -0.008227 -6.514438 -3.928408 0.218749 -5.016098 5.764390 -46.236338 -55.436106 23.526755 -30.878834 8.109913 12.732054 -4.047068 -42.821679 0.358700 -23.525974 74.441591 -25.825539 2.266310 -3.775340 6.915436 -0.017104 -0.006008 -0.007592 -3.736975 -35.752521 -5.775013 0.016763 69.461171 2.828564 -12.198947 -5.594118 -4.304972 -0.001676 -0.001538 -0.000744
